<mxfile host="65bd71144e">
    <diagram id="7W4FLCNAzhLjAAYPnn7t" name="Page-1">
        <mxGraphModel dx="3093" dy="1669" grid="1" gridSize="10" guides="1" tooltips="1" connect="1" arrows="1" fold="1" page="1" pageScale="1" pageWidth="850" pageHeight="1100" math="0" shadow="0">
            <root>
                <mxCell id="0"/>
                <mxCell id="1" parent="0"/>
                <mxCell id="44" value="" style="shape=step;perimeter=stepPerimeter;whiteSpace=wrap;html=1;fixedSize=1;direction=south;size=80;" vertex="1" parent="1">
                    <mxGeometry x="1120" y="160" width="280" height="280" as="geometry"/>
                </mxCell>
                <mxCell id="38" value="" style="shape=step;perimeter=stepPerimeter;whiteSpace=wrap;html=1;fixedSize=1;direction=south;size=80;" vertex="1" parent="1">
                    <mxGeometry x="1480" y="160" width="280" height="720" as="geometry"/>
                </mxCell>
                <mxCell id="37" value="" style="shape=step;perimeter=stepPerimeter;whiteSpace=wrap;html=1;fixedSize=1;direction=south;size=80;" vertex="1" parent="1">
                    <mxGeometry x="760" y="480" width="280" height="280" as="geometry"/>
                </mxCell>
                <mxCell id="36" value="" style="shape=step;perimeter=stepPerimeter;whiteSpace=wrap;html=1;fixedSize=1;direction=south;size=80;" vertex="1" parent="1">
                    <mxGeometry x="760" y="160" width="280" height="360" as="geometry"/>
                </mxCell>
                <mxCell id="35" value="" style="shape=step;perimeter=stepPerimeter;whiteSpace=wrap;html=1;fixedSize=1;direction=south;size=80;" vertex="1" parent="1">
                    <mxGeometry x="400" y="160" width="280" height="720" as="geometry"/>
                </mxCell>
                <mxCell id="34" value="" style="shape=step;perimeter=stepPerimeter;whiteSpace=wrap;html=1;fixedSize=1;direction=south;size=80;" vertex="1" parent="1">
                    <mxGeometry x="40" y="160" width="280" height="720" as="geometry"/>
                </mxCell>
                <mxCell id="4" value="New Object" style="rounded=1;whiteSpace=wrap;html=1;" vertex="1" parent="1">
                    <mxGeometry x="80" y="280" width="200" height="40" as="geometry"/>
                </mxCell>
                <mxCell id="5" value="NodeTree" style="rounded=1;whiteSpace=wrap;html=1;" vertex="1" parent="1">
                    <mxGeometry x="80" y="360" width="200" height="40" as="geometry"/>
                </mxCell>
                <mxCell id="6" value="Mesh Buillder" style="rounded=1;whiteSpace=wrap;html=1;" vertex="1" parent="1">
                    <mxGeometry x="80" y="440" width="200" height="40" as="geometry"/>
                </mxCell>
                <mxCell id="7" value="Camera" style="rounded=1;whiteSpace=wrap;html=1;" vertex="1" parent="1">
                    <mxGeometry x="80" y="520" width="200" height="40" as="geometry"/>
                </mxCell>
                <mxCell id="10" value="Local RotationMatrix Calc" style="rounded=1;whiteSpace=wrap;html=1;" vertex="1" parent="1">
                    <mxGeometry x="440" y="280" width="200" height="40" as="geometry"/>
                </mxCell>
                <mxCell id="11" value="Projection Matrix Calc" style="rounded=1;whiteSpace=wrap;html=1;" vertex="1" parent="1">
                    <mxGeometry x="440" y="600" width="200" height="40" as="geometry"/>
                </mxCell>
                <mxCell id="12" value="Target Camera Modify Local" style="rounded=1;whiteSpace=wrap;html=1;" vertex="1" parent="1">
                    <mxGeometry x="440" y="360" width="200" height="40" as="geometry"/>
                </mxCell>
                <mxCell id="13" value="Local Matrix Calc" style="rounded=1;whiteSpace=wrap;html=1;" vertex="1" parent="1">
                    <mxGeometry x="440" y="440" width="200" height="40" as="geometry"/>
                </mxCell>
                <mxCell id="14" value="World Matrix Calc" style="rounded=1;whiteSpace=wrap;html=1;" vertex="1" parent="1">
                    <mxGeometry x="440" y="520" width="200" height="40" as="geometry"/>
                </mxCell>
                <mxCell id="15" value="View Matrix Calc" style="rounded=1;whiteSpace=wrap;html=1;" vertex="1" parent="1">
                    <mxGeometry x="440" y="680" width="200" height="40" as="geometry"/>
                </mxCell>
                <mxCell id="17" value="Scene Uniform" style="rounded=1;whiteSpace=wrap;html=1;" vertex="1" parent="1">
                    <mxGeometry x="800" y="280" width="200" height="40" as="geometry"/>
                </mxCell>
                <mxCell id="18" value="Camera Uniform" style="rounded=1;whiteSpace=wrap;html=1;" vertex="1" parent="1">
                    <mxGeometry x="800" y="360" width="200" height="40" as="geometry"/>
                </mxCell>
                <mxCell id="20" value="Default Material Unifrom" style="rounded=1;whiteSpace=wrap;html=1;" vertex="1" parent="1">
                    <mxGeometry x="800" y="600" width="200" height="40" as="geometry"/>
                </mxCell>
                <mxCell id="21" value="Default Material&amp;nbsp; BeforeRender" style="rounded=1;whiteSpace=wrap;html=1;" vertex="1" parent="1">
                    <mxGeometry x="1160" y="280" width="200" height="40" as="geometry"/>
                </mxCell>
                <mxCell id="23" value="Opaque List Sort" style="rounded=1;whiteSpace=wrap;html=1;" vertex="1" parent="1">
                    <mxGeometry x="1520" y="280" width="200" height="40" as="geometry"/>
                </mxCell>
                <mxCell id="24" value="AlphaTest List Sort" style="rounded=1;whiteSpace=wrap;html=1;" vertex="1" parent="1">
                    <mxGeometry x="1520" y="360" width="200" height="40" as="geometry"/>
                </mxCell>
                <mxCell id="25" value="Transparent List Sort" style="rounded=1;whiteSpace=wrap;html=1;" vertex="1" parent="1">
                    <mxGeometry x="1520" y="440" width="200" height="40" as="geometry"/>
                </mxCell>
                <mxCell id="39" value="用户操作，数据修改" style="shape=step;perimeter=stepPerimeter;whiteSpace=wrap;html=1;fixedSize=1;" vertex="1" parent="1">
                    <mxGeometry y="40" width="360" height="80" as="geometry"/>
                </mxCell>
                <mxCell id="40" value="计算" style="shape=step;perimeter=stepPerimeter;whiteSpace=wrap;html=1;fixedSize=1;" vertex="1" parent="1">
                    <mxGeometry x="360" y="40" width="360" height="80" as="geometry"/>
                </mxCell>
                <mxCell id="41" value="Uniform" style="shape=step;perimeter=stepPerimeter;whiteSpace=wrap;html=1;fixedSize=1;" vertex="1" parent="1">
                    <mxGeometry x="720" y="40" width="360" height="80" as="geometry"/>
                </mxCell>
                <mxCell id="42" value="Before Render - 收集渲染列表" style="shape=step;perimeter=stepPerimeter;whiteSpace=wrap;html=1;fixedSize=1;" vertex="1" parent="1">
                    <mxGeometry x="1080" y="40" width="360" height="80" as="geometry"/>
                </mxCell>
                <mxCell id="43" value="渲染列表排序" style="shape=step;perimeter=stepPerimeter;whiteSpace=wrap;html=1;fixedSize=1;" vertex="1" parent="1">
                    <mxGeometry x="1440" y="40" width="360" height="80" as="geometry"/>
                </mxCell>
            </root>
        </mxGraphModel>
    </diagram>
</mxfile>